<svg xmlns="http://www.w3.org/2000/svg" width="44" height="43" viewBox="0 0 44 43">
    <defs>
        <filter id="ha63zidxha" color-interpolation-filters="auto">
            <feColorMatrix in="SourceGraphic" values="0 0 0 0 0.000000 0 0 0 0 0.262745 0 0 0 0 0.407843 0 0 0 1.000000 0"/>
        </filter>
    </defs>
    <g fill="none" fill-rule="evenodd">
        <g>
            <g>
                <g fill="#E4EBED" transform="translate(-1030 -821) translate(1030.667 821)">
                    <rect width="42.667" height="42.667" rx="20"/>
                </g>
                <g filter="url(#ha63zidxha)" transform="translate(-1030 -821) translate(1030.667 821)">
                    <g fill="#000" fill-rule="nonzero">
                        <path d="M21.79 10.21H1.371C.614 10.21 0 10.823 0 11.58c0 .757.614 1.371 1.371 1.371h20.42c.757 0 1.37-.614 1.37-1.371 0-.758-.613-1.371-1.37-1.371z" transform="matrix(1 0 0 -1 9.96 33.219)"/>
                        <path d="M21.79 10.21H1.371C.614 10.21 0 10.823 0 11.58c0 .757.614 1.371 1.371 1.371h20.42c.757 0 1.37-.614 1.37-1.371 0-.758-.613-1.371-1.37-1.371z" transform="matrix(1 0 0 -1 9.96 33.219) rotate(90 11.581 11.581)"/>
                    </g>
                </g>
            </g>
        </g>
    </g>
</svg>
