<svg xmlns="http://www.w3.org/2000/svg" width="24" height="24" viewBox="0 0 24 24">
    <g fill="none" fill-rule="evenodd">
        <g>
            <g>
                <g>
                    <path d="M0 0L24 0 24 24 0 24z" transform="translate(-466 -80) translate(414 80) translate(52)"/>
                    <path fill="#004368" fill-rule="nonzero" d="M7.71 9.29l3.88 3.88 3.88-3.88c.39-.39 1.02-.39 1.41 0 .39.39.39 1.02 0 1.41l-4.59 4.59c-.39.39-1.02.39-1.41 0L6.29 10.7c-.39-.39-.39-1.02 0-1.41.39-.38 1.03-.39 1.42 0z" transform="translate(-466 -80) translate(414 80) translate(52)"/>
                </g>
            </g>
        </g>
    </g>
</svg>
