<svg xmlns="http://www.w3.org/2000/svg" width="24" height="24" viewBox="0 0 24 24">
    <g fill="none" fill-rule="evenodd">
        <g>
            <g>
                <g>
                    <g transform="translate(-120 -699) translate(104 675) translate(16 20) translate(0 4)">
                        <circle cx="12" cy="12" r="12" fill="#E4EBED"/>
                        <g>
                            <path d="M0 0H14.4V14.4H0z" transform="translate(4.8 4.8)"/>
                            <g fill-rule="nonzero" transform="translate(4.8 4.8) translate(3 1.2)">
                                <path fill="#004368" d="M1.2 10.2c-.66 0-1.2.54-1.2 1.2h8.4c0-.66-.54-1.2-1.2-1.2H4.8V9h1.8c.66 0 1.2-.54 1.2-1.2H3c-.996 0-1.8-.804-1.8-1.8 0-.654.354-1.224.876-1.536-.174-.246-.276-.54-.276-.864 0-.126.024-.252.054-.372C.768 3.678 0 4.752 0 6c0 1.656 1.344 3 3 3v1.2H1.2z"/>
                                <path fill="#FFCE04" d="M3.336 2.106c.81.018 1.464.678 1.464 1.494 0 .45-.198.846-.51 1.122l.354.972.564-.204.204.564 1.128-.408-.204-.564.564-.204L5.256.36l-.564.204L4.488 0 3.36.408l.204.564-.564.21.336.924z"/>
                                <circle cx="3.3" cy="3.6" r="1" fill="#FFCE04"/>
                            </g>
                        </g>
                    </g>
                </g>
            </g>
        </g>
    </g>
</svg>
