<svg xmlns="http://www.w3.org/2000/svg" width="24" height="24" viewBox="0 0 24 24">
    <g fill="none" fill-rule="evenodd">
        <g>
            <g>
                <path d="M0 0L24 0 24 24 0 24z" transform="translate(-1097 -80) translate(1097 80)"/>
                <path fill="#004368" fill-rule="nonzero" d="M5 5c0 .55.45 1 1 1h12c.55 0 1-.45 1-1s-.45-1-1-1H6c-.55 0-1 .45-1 1zm2.41 9H9v5c0 .55.45 1 1 1h4c.55 0 1-.45 1-1v-5h1.59c.89 0 1.34-1.08.71-1.71L12.71 7.7c-.39-.39-1.02-.39-1.41 0l-4.59 4.59c-.63.63-.19 1.71.7 1.71z" transform="translate(-1097 -80) translate(1097 80)"/>
            </g>
        </g>
    </g>
</svg>
